<svg id="cloud" xmlns="http://www.w3.org/2000/svg" viewBox="0 0 841.89 595.28"><defs><style>.cls-1,.cls-2{fill:#fff;}.cls-1{stroke:#1d1d1b;stroke-miterlimit:10;stroke-width:10px;}.cls-3{fill:#1d1d1b;}</style></defs><path class="cls-1" d="M141.16,435.33c12.46,14.48,32.16,33.23,60.61,45.12,48.89,20.42,91.78,7.24,135.67,0,117.33-19.36,118.5,24.11,236.91,8.1,21.79-2.95,112.19-16.66,196.49-80.57,58.54-44.38,62.18-73.58,62.7-83.45,2.62-49.29-47.52-84.85-54.53-89.67C768.89,123.49,647.39,111.34,647.39,111.34c-133.64-64.8-247,0-247,0-22.53-1.85-113.94-6.78-186.54,57.34a226.86,226.86,0,0,0-52.54,68.78c-11,4.39-33.23,15.14-50.23,38.8C80,319.44,92.59,369.21,94.59,376.6l-72.9,75Z"/><path class="cls-2" d="M189.62,251.63s107.32-111.37,218.69-97.2"/><path class="cls-3" d="M187.91,250a295.69,295.69,0,0,1,22.19-21.9c3.85-3.47,7.82-6.82,11.82-10.14,2-1.63,4-3.3,6.05-4.9s4.1-3.2,6.17-4.76l6.26-4.65,6.36-4.54c4.3-2.92,8.62-5.83,13-8.6,8.8-5.57,17.86-10.76,27.19-15.47a286,286,0,0,1,28.76-12.58c4.95-1.72,9.88-3.5,15-4.87,5-1.56,10.15-2.7,15.26-3.91,5.18-.94,10.33-2,15.57-2.56,2.6-.35,5.21-.69,7.84-.81s5.25-.36,7.87-.49a158.84,158.84,0,0,1,31.36,2.28l-.6,4.71a210.7,210.7,0,0,0-30.27.51c-5,.64-10,1.13-14.95,2.13-5,.76-9.87,2-14.78,3.1-4.85,1.36-9.75,2.53-14.52,4.17-4.83,1.45-9.54,3.29-14.3,5-9.42,3.64-18.65,7.79-27.75,12.23l-6.77,3.47c-2.25,1.17-4.45,2.42-6.68,3.63s-4.42,2.49-6.63,3.75-4.41,2.52-6.56,3.86c-4.37,2.6-8.65,5.35-12.92,8.11l-6.37,4.21-6.29,4.33q-6.24,4.42-12.39,9c-2.05,1.52-4.07,3.08-6.1,4.62l-6,4.71c-8,6.34-15.88,12.93-23.36,19.75Z"/><path class="cls-2" d="M641.18,142.28s97.19,20.25,95.17,97.2"/><path class="cls-3" d="M641.82,139.19a134.94,134.94,0,0,1,18.38,4.59,157,157,0,0,1,17.63,6.78l4.28,2c1.43.69,2.82,1.44,4.24,2.16,2.78,1.52,5.55,3.07,8.24,4.78A118.75,118.75,0,0,1,710,170.87a101.24,101.24,0,0,1,13.31,14l2.88,3.93c.89,1.37,1.74,2.76,2.6,4.14s1.6,2.84,2.37,4.27l1.14,2.17c.38.72.66,1.49,1,2.24a76.93,76.93,0,0,1,6.18,37.89l-6.32-.16-.37-4.44-.15-2.21c-.09-.73-.22-1.46-.33-2.18l-.63-4.36c-.33-1.43-.67-2.85-1-4.27a74.4,74.4,0,0,0-5.9-16.31A81.11,81.11,0,0,0,715.55,191a105.87,105.87,0,0,0-12.06-12.65,131,131,0,0,0-14.11-10.69c-2.46-1.65-5-3.17-7.6-4.67-1.3-.73-2.58-1.49-3.9-2.2l-4-2.09c-5.35-2.69-10.82-5.19-16.42-7.4-2.78-1.14-5.62-2.15-8.45-3.18s-5.75-2-8.52-2.74Z"/></svg>