<svg id="Layer_1" data-name="Layer 1" xmlns="http://www.w3.org/2000/svg" viewBox="0 0 595.28 841.89"><defs><style>.cls-1,.cls-11,.cls-4,.cls-5,.cls-6{fill:#1d1d1b;}.cls-1,.cls-10,.cls-2,.cls-3,.cls-5,.cls-7{stroke:#1d1d1b;}.cls-1,.cls-10,.cls-2,.cls-3,.cls-4,.cls-5,.cls-7,.cls-8,.cls-9{stroke-miterlimit:10;}.cls-10,.cls-2,.cls-3,.cls-9{fill:#fff;}.cls-3,.cls-5,.cls-7,.cls-8,.cls-9{stroke-width:2px;}.cls-4,.cls-8,.cls-9{stroke:#fff;}.cls-4{stroke-width:0.25px;}.cls-7,.cls-8{fill:none;}.cls-10{stroke-width:3px;}.cls-11{font-size:40.93px;font-family:MyriadPro-Regular, Myriad Pro;}.cls-12{letter-spacing:0em;}</style></defs><path class="cls-1" d="M316.48,660.36C352.94,629.45,362.65,577,362.65,577c35-33.8,7.86-80.22,7.86-80.22,2.6-65-12.14-80.6-12.14-80.6s-19.06-38.14-13.86-56.34-6.07-27.73-6.07-27.73-5.2-.87-25.14-24.27S280.37,294,280.37,294C271.7,282.75,244,275,244,275c-31.2-17.34-50.27-5.2-50.27-5.2-39.87-6.94-84.94,38.13-81.47,45.93s-6.07,31.2-6.07,31.2c-39,13.87-31.2,55.47-31.2,55.47C47.23,428.35,55,456.09,55,456.09c6.07,5.2.87,26,.87,26s-34.67,32.06-22.54,55.46,10.4,39.89,10.4,39.89c-13,66.74,23.4,71,23.4,71,7.8,35.54,21.67,28.6,21.67,28.6s95.53,66.74,119.7-14.73c0,0,28.51-7.8,14.64-55.47,0,0,17.33-27.75-10.4-45.08l-4.24,100.55s44.73,24.38,66.53-9.65C275.06,652.71,294,679.42,316.48,660.36Z"/><path class="cls-2" d="M232.7,335.61s-10.4,19.07-61.53,39.87c0,0,4.33,56.34-16.47,52.87,0,0,1.73,12.13,7.8,13s43.53,33.8,46,46.8c0,0,17.24,6.94,20.7,6.07s21.67,0,57.21-61.54c0,0,8.66-33.8-7.8-52S231.83,359,232.7,335.61Z"/><path class="cls-3" d="M18.63,471.69S34.93,448.28,77.05,450,153,368.55,135.63,349.48c0,0-33.8,32.07-90.13,74.54,0,0-29.47,18.2-26.87,47.67"/><path class="cls-3" d="M414.71,438.75s-30.34,24.27-71.07-9.53c0,0-15.6-68.47-14.74-74.54.39-2.71,68.47,85.8,85.81,84.07"/><path class="cls-4" d="M240.5,302.68s9.54-45.93,13-56.34-6.5-25.13-6.5-25.13,19.5-4.33,31.64,21.67,0,80.6,0,80.6S264.77,310.48,240.5,302.68Z"/><path class="cls-4" d="M151.23,220.94a77.64,77.64,0,0,1,3.47,27.14c-.8,14.85-5.75,22.78-8.25,32.8-2.8,11.22-3.29,28.15,8.25,52.13,0,0,24.27-16.46,32.93-15.6,0,0-13.23-21.07-5.31-45.2C182.32,272.21,179,217.2,151.23,220.94Z"/><path class="cls-3" d="M62,509.82C60.58,512,62,681.43,133,724.76c0,0,10.56-6.07,22-22.53,20.49-29.5,29.13-76,28.81-83.57a7,7,0,0,1,.33-2.28s0-2.1,0-2l.32-3c-.75-3.47,36.94-109.39,7.48-139.72,0,0-6.94-17.34-29.47-30.34,0,0-12.66-2.52-9.05-18.44,0,0,2-5.85-2.75-9.64,0,0-6.55,22.27-5.92,31.42,0,0,11.25,13,13,13.86,0,0,.59,5.9-5.9.59s-11.63-15.63-11.63-15.63,5.43-22.42,1-30.24c0,0-7.67,17.83-7.08,33.91l1.47,9.31a64.71,64.71,0,0,0,7.16,9.4c1.6,1.73,3.46,3.53,3,4.37-.38.66-2.13.46-3.25.14,0,0-3.73-1-10.17-13.32-.16-2.08-.3-4.2-.39-6.35a190.06,190.06,0,0,1,1.45-33.36,70.6,70.6,0,0,0-7,29.84c0,6,0,10.78,2.47,16.36,3.25,7.24,9,11.89,7.92,13.29-.77,1-4.19-.55-4.41-.61-9.71-2.65-12.07-34.51-10-42.18,0,0-1.48-.89-3.25,1.18s-3.24,23-2.36,28.91,12.1,16.82,13.28,20.06,52.58,19.46,52.25,29.79-22.46,53.1-44,73.16-21.08,103.51-27.44,85.25c-.48-1.4-6.49-41.6,10.92-70.8,0,0-2.66-24.48-18-30.68s-21.53-48.67-21.53-48.67S65,505,62,509.82Z"/><path class="cls-5" d="M249.86,410.58c0-1.36-1.71-29.3,25.2-33.46,0,0-21.42,4.54-25.2,32.1"/><path class="cls-6" d="M251.45,408.17c1.31-.86,2.67-1.68,4.05-2.49s2.87-1.41,4.34-2.06a39.07,39.07,0,0,1,9.49-2.54,16.17,16.17,0,0,1,2.52-.24c.43.05.82,1,1.23,1a7.5,7.5,0,0,0,1.25,0,8.52,8.52,0,0,1,2.56-.19c.83.22,1.65.46,2.46.73a20.58,20.58,0,0,1,4.56,2.37,13.23,13.23,0,0,1,3.64,3.7l-1.46,1.37a24,24,0,0,0-4-1.4,30.59,30.59,0,0,0-4.08-.79c-.69-.08-1.38-.09-2.06-.18a7,7,0,0,1-2-.7,2.26,2.26,0,0,0-1.06-.15c-.35,0-.72.92-1.06,1s-.69-.07-1-.08h-1.05c-1.4-.05-2.82.08-4.27.17a17.87,17.87,0,0,0-2.16.25l-2.19.27-4.4.85c-1.46.37-2.94.72-4.46,1Z"/><path class="cls-7" d="M256.19,401.72s16.69-13.68,26.3-4.33"/><path class="cls-6" d="M219.08,385.7a.8.8,0,0,0-.38.62c0,.08,0,.06,0,.06l-.08-.16a4.71,4.71,0,0,0-.3-.5,11.64,11.64,0,0,0-.78-1,17.13,17.13,0,0,0-1.9-1.91,29.86,29.86,0,0,0-4.42-3.21,40.71,40.71,0,0,0-10.18-4.2,61.38,61.38,0,0,0-11-1.79,109.46,109.46,0,0,0-11.33-.23l-.21-2a55.76,55.76,0,0,1,11.7-1,48.88,48.88,0,0,1,11.75,1.69A37.3,37.3,0,0,1,212.85,377a26.83,26.83,0,0,1,4.63,3.89,19.49,19.49,0,0,1,1.93,2.4,12.9,12.9,0,0,1,.82,1.36,6.82,6.82,0,0,1,.33.81,3.45,3.45,0,0,1,.14.52,2.31,2.31,0,0,1,0,.42,1.17,1.17,0,0,1-.07.38,1.15,1.15,0,0,1-.42.56Z"/><path class="cls-6" d="M216.64,404.77a45.26,45.26,0,0,0-9.25-6.95,32.67,32.67,0,0,0-10.6-3.84,28,28,0,0,0-11.12.55A44.87,44.87,0,0,0,175,399l-1.16-1.63a31.31,31.31,0,0,1,10.81-6.28,27.92,27.92,0,0,1,6.3-1.25,27.33,27.33,0,0,1,6.45.3,30.67,30.67,0,0,1,11.76,4.76,34.17,34.17,0,0,1,9,8.63Z"/><path class="cls-5" d="M184.61,393s7,23,16.58,1.41"/><path class="cls-7" d="M178.59,386.52c0-.46,11.4-6.73,30.83,4.06"/><path class="cls-5" d="M212.85,451s12.12,33.62,34.07,5.26c0,0,.91-13.94-8-7.54s-1.15,0-1.15,0-6.62-8.46-18.06,1.14C219.71,449.85,214.22,452.6,212.85,451Z"/><path class="cls-7" d="M228.63,436.13s5-3.66,8-3.66"/><path class="cls-8" d="M243.26,445.27s-3.2-7.31,8.46-14.63l-1.88-9.83"/><path class="cls-9" d="M262.27,312.15s4-25.59,6.48-42.11,4.31-20.83,0-30.89c0,0,11.53,10.09,6.31,33.06,0,0-5.59,44.22-3.22,45.94S262.27,312.15,262.27,312.15Z"/><polygon class="cls-8" points="262.27 244.54 257.98 250.29 262.27 252.08 262.27 244.54"/><polygon class="cls-8" points="257.98 256.75 257.07 258.4 255.61 261.06 259.95 261.06 257.98 256.75"/><path class="cls-8" d="M253.26,270.76c.77,1.08-1.54,8-1.54,8l6.06-6.57Z"/><polygon class="cls-9" points="247.29 294.1 249.84 301.65 253.26 294.1 249.84 288 247.29 294.1"/><path class="cls-9" d="M170.49,323.48c-.53.29-8.1-19.71,0-46.59s2.3-31.63,0-35.58c0,0,12,9.39,4.17,35.58s3.93,41.51,3.93,41.51Z"/><path class="cls-8" d="M162.08,239.15v2.16h2.16Z"/><polygon class="cls-8" points="164.24 248.31 164.24 252.08 166.21 254.96 164.24 248.31"/><polygon class="cls-9" points="158.13 269.32 160.65 261.06 163.16 269.32 158.13 269.32"/><polygon class="cls-9" points="152.03 290.51 154.7 278.78 160.65 284.64 152.03 290.51"/><polygon class="cls-9" points="152.03 299.85 154.7 310.63 158.13 305.24 152.03 299.85"/><polygon class="cls-7" points="155.08 319.96 158.13 323.48 162.08 321.72 155.08 319.96"/><path class="cls-10" d="M307.39,488.43a23.1,23.1,0,0,0-13.61,3.23c-12.57,8-12,28.8-11.79,38.42,1.22,48,72.54,157.09,81.16,170.16q23-34.66,46.19-73.34c21.21-35.6,40.11-70.2,57-103.4,56.39-11.32,92.92-18.57,93.62-18.5,0,0,4.3-2,4.29-2.32,0-1.56-100.85-1.34-100.86-1.34a55.17,55.17,0,0,0-7.66,6.13,52.19,52.19,0,0,0-11,15q-12.13,15.18-24.25,31.41c-18.59,24.94-35.26,49.39-50.22,73-6.13-18.92-13.62-39.13-22.79-60.27A683.77,683.77,0,0,0,307.39,488.43Z"/><text class="cls-11" transform="translate(428.82 440.34) scale(0.95 1)"><tspan class="cls-12">G</tspan><tspan x="26.64" y="0">ood job!</tspan></text></svg>